<?xml version="1.0" encoding="utf-8"?>
<!-- Generator: Adobe Illustrator 26.3.1, SVG Export Plug-In . SVG Version: 6.00 Build 0)  -->
<svg version="1.1" id="Layer_1" xmlns="http://www.w3.org/2000/svg" xmlns:xlink="http://www.w3.org/1999/xlink" x="0px" y="0px"
	 viewBox="0 0 89.9 28" style="enable-background:new 0 0 89.9 28;" xml:space="preserve">
<style type="text/css">
	.st0{fill:#64C1BE;}
	.st1{fill:#E4DF45;}
	.st2{fill-rule:evenodd;clip-rule:evenodd;fill:url(#SVGID_1_);}
	.st3{fill-rule:evenodd;clip-rule:evenodd;fill:url(#SVGID_00000096765696659966794990000016497835817687001221_);}
	.st4{fill-rule:evenodd;clip-rule:evenodd;fill:url(#SVGID_00000169516357976428997580000003439526580752579990_);}
	.st5{fill-rule:evenodd;clip-rule:evenodd;fill:url(#SVGID_00000137828616238438701980000003129844895360415641_);}
	.st6{fill-rule:evenodd;clip-rule:evenodd;fill:url(#SVGID_00000180337522880083982490000017730077163400927646_);}
	.st7{fill-rule:evenodd;clip-rule:evenodd;fill:url(#SVGID_00000070797494762001679840000008031282192334704556_);}
</style>
<g>
	<path class="st0" d="M58.7,26.3c-0.2-0.1-0.5-0.3-0.7-0.5c-0.2-0.2-0.3-0.4-0.4-0.7c-0.1-0.3-0.2-0.6-0.2-0.9
		c0-0.4,0.1-0.9,0.2-1.3c0.1-0.4,0.4-0.7,0.6-1c0.3-0.3,0.6-0.5,0.9-0.7c0.3-0.2,0.7-0.2,1.1-0.2c0.3,0,0.5,0,0.8,0.1
		c0.2,0.1,0.4,0.2,0.6,0.3c0.2,0.1,0.3,0.3,0.4,0.5c0.1,0.2,0.2,0.3,0.3,0.5l0.9-3.5h0.5l-2,7.4h-0.5l0.3-1
		c-0.3,0.3-0.6,0.6-0.9,0.8c-0.4,0.2-0.8,0.3-1.2,0.3C59.2,26.5,59,26.4,58.7,26.3z M60.5,25.8c0.3-0.2,0.6-0.4,0.8-0.6
		c0.3-0.2,0.5-0.5,0.6-0.8c0.1-0.3,0.2-0.6,0.2-1c0-0.2,0-0.5-0.1-0.7c-0.1-0.2-0.2-0.4-0.4-0.6c-0.2-0.2-0.3-0.3-0.6-0.4
		c-0.2-0.1-0.5-0.1-0.7-0.1c-0.3,0-0.7,0.1-1,0.2c-0.3,0.1-0.6,0.3-0.8,0.6c-0.2,0.3-0.4,0.5-0.5,0.9c-0.1,0.3-0.2,0.7-0.2,1
		c0,0.2,0,0.5,0.1,0.7c0.1,0.2,0.2,0.4,0.3,0.6c0.1,0.2,0.3,0.3,0.5,0.4c0.2,0.1,0.4,0.1,0.6,0.1C59.9,26,60.2,25.9,60.5,25.8z"/>
	<path class="st0" d="M66,21.2h0.5l-0.4,1.5c0.2-0.2,0.3-0.5,0.5-0.7c0.2-0.2,0.4-0.4,0.6-0.5c0.2-0.1,0.4-0.2,0.7-0.3
		c0.3-0.1,0.5-0.1,0.8-0.1l-0.1,0.5l0,0c-0.3,0-0.6,0.1-0.9,0.2c-0.3,0.1-0.6,0.3-0.8,0.5c-0.3,0.2-0.5,0.5-0.7,0.8
		c-0.2,0.3-0.4,0.7-0.5,1.1l-0.6,2.1h-0.5L66,21.2z"/>
	<path class="st0" d="M71.2,26.3c-0.3-0.1-0.5-0.3-0.7-0.5c-0.2-0.2-0.4-0.5-0.5-0.7c-0.1-0.3-0.2-0.6-0.2-0.9
		c0-0.4,0.1-0.8,0.2-1.2c0.2-0.4,0.4-0.7,0.7-1c0.3-0.3,0.6-0.5,1-0.7c0.4-0.2,0.8-0.3,1.2-0.3c0.3,0,0.6,0.1,0.9,0.2
		c0.5,0.2,1,0.6,1.2,1.2c0.1,0.3,0.2,0.6,0.2,0.9c0,0.4-0.1,0.8-0.3,1.2c-0.2,0.4-0.4,0.7-0.7,1c-0.3,0.3-0.6,0.5-1,0.7
		c-0.4,0.2-0.8,0.3-1.2,0.2C71.8,26.5,71.5,26.4,71.2,26.3z M73.1,25.8c0.3-0.1,0.6-0.3,0.8-0.6c0.2-0.2,0.4-0.5,0.6-0.8
		c0.1-0.3,0.2-0.7,0.2-1c0-0.5-0.2-1-0.5-1.4c-0.3-0.3-0.8-0.5-1.3-0.5c-0.3,0-0.6,0.1-0.9,0.2c-0.6,0.3-1.1,0.8-1.4,1.4
		c-0.1,0.3-0.2,0.6-0.2,1c0,0.5,0.2,1,0.5,1.4c0.4,0.3,0.8,0.5,1.3,0.5C72.5,26,72.8,25.9,73.1,25.8z"/>
	<path class="st0" d="M78.2,21.2h0.5l-0.3,1c0.3-0.3,0.6-0.6,0.9-0.8c0.4-0.2,0.8-0.3,1.2-0.3c0.3,0,0.6,0.1,0.8,0.2
		c0.2,0.1,0.5,0.3,0.7,0.5c0.2,0.2,0.3,0.4,0.4,0.7c0.1,0.3,0.2,0.6,0.2,0.9c0,0.4-0.1,0.9-0.2,1.3c-0.1,0.4-0.4,0.7-0.6,1
		c-0.3,0.3-0.6,0.5-0.9,0.7c-0.3,0.2-0.7,0.2-1.1,0.2c-0.3,0-0.5,0-0.8-0.1c-0.2-0.1-0.4-0.2-0.6-0.3c-0.2-0.1-0.3-0.3-0.4-0.5
		c-0.1-0.2-0.2-0.4-0.3-0.5L76.9,28h-0.5L78.2,21.2z M80.7,25.8c0.3-0.1,0.6-0.3,0.8-0.6c0.2-0.3,0.4-0.5,0.5-0.9
		c0.1-0.3,0.2-0.6,0.2-1c0-0.2,0-0.5-0.1-0.7c-0.1-0.2-0.2-0.4-0.3-0.6c-0.1-0.2-0.3-0.3-0.5-0.4c-0.2-0.1-0.4-0.1-0.6-0.1
		c-0.3,0-0.7,0.1-0.9,0.2c-0.3,0.1-0.6,0.3-0.8,0.6c-0.2,0.2-0.4,0.5-0.6,0.8c-0.1,0.3-0.2,0.7-0.2,1c0,0.2,0,0.5,0.1,0.7
		c0.1,0.2,0.2,0.4,0.4,0.6c0.2,0.2,0.4,0.3,0.6,0.4c0.2,0.1,0.5,0.1,0.7,0.1C80.1,26,80.4,26,80.7,25.8z"/>
	<path class="st0" d="M85.1,26.2c-0.4-0.2-0.7-0.4-1-0.7l0.4-0.4c0.3,0.3,0.6,0.5,0.9,0.6c0.3,0.1,0.7,0.2,1,0.2
		c0.2,0,0.3,0,0.5-0.1c0.2,0,0.3-0.1,0.4-0.2c0.1-0.1,0.2-0.2,0.3-0.3c0.1-0.1,0.1-0.3,0.1-0.4c0-0.1,0-0.2,0-0.3
		c0-0.1-0.1-0.2-0.2-0.2c-0.1-0.1-0.2-0.2-0.3-0.2c-0.2-0.1-0.4-0.2-0.5-0.2c-0.4-0.1-0.8-0.3-1.1-0.6c-0.2-0.2-0.4-0.5-0.4-0.8
		c0-0.2,0-0.4,0.1-0.6c0.1-0.2,0.2-0.3,0.4-0.5c0.2-0.1,0.4-0.2,0.6-0.3c0.3-0.1,0.5-0.1,0.8-0.1c0.4,0,0.7,0.1,1,0.2
		c0.3,0.1,0.6,0.3,0.8,0.5l-0.3,0.4c-0.2-0.2-0.5-0.3-0.7-0.4c-0.3-0.1-0.6-0.2-0.9-0.2c-0.2,0-0.4,0-0.6,0.1
		c-0.2,0-0.3,0.1-0.4,0.2c-0.1,0.1-0.2,0.2-0.3,0.3c-0.1,0.1-0.1,0.2-0.1,0.4c0,0.1,0,0.2,0,0.3c0,0.1,0.1,0.2,0.2,0.2
		c0.1,0.1,0.2,0.2,0.4,0.2c0.2,0.1,0.4,0.2,0.6,0.3c0.2,0.1,0.4,0.2,0.7,0.3c0.2,0.1,0.3,0.2,0.4,0.3c0.1,0.1,0.2,0.2,0.2,0.4
		c0,0.1,0.1,0.3,0.1,0.4c0,0.2,0,0.4-0.2,0.6c-0.1,0.2-0.2,0.4-0.4,0.5c-0.2,0.1-0.4,0.2-0.6,0.3c-0.3,0.1-0.5,0.1-0.8,0.1
		C85.9,26.5,85.5,26.4,85.1,26.2z"/>
	<path class="st1" d="M28.2,10.7c1.9-1.5,5.3-4.5,6.4-8.4c0-0.1-0.1-0.2-0.1-0.3c0-0.2,0.1-0.3,0.3-0.3c0.8,0,2.6,1.3,2.6,2v0.1
		c-0.5,2.5-5,7.4-8.7,8.9c0.8,2.4,4.9,8.4,9.4,8.4c0.3,0,0.5,0,0.8,0C38.9,21,39,21,39.2,21c0,0,0.3,0.1,0.3,0.2
		c0,0.5-1.6,2.3-3,2.3c-4.2,0-8.1-6-9-9.8c-0.3,1.2-0.5,2.5-0.5,3.8c0,0.6,0,1.1,0.1,1.6c-0.5,0.4-1,0.6-1.6,0.6
		c-0.9,0-1.6-1.1-1.6-2.4c0-3.2,3.1-9.7,3.6-13.6c-2,0-4.9,4.8-4.9,5.6c0,0.7,1,0.5,1,0.7c0.1,0.2-0.9,0.5-1.4,0.5
		c-0.1,0-0.2,0-0.3-0.1C21,9.2,20,9.2,20,7.8c0-2.5,4.8-6,7.6-6c1.2,0,2.1,0.7,2.1,2.3C29.7,6.1,28.9,8.3,28.2,10.7z"/>
	<path class="st1" d="M44.5,14.2c-0.2,0.7-0.5,1.3-0.9,1.9c-1.2,2-3.1,3.9-4.9,3.9c-2.4,0-3.4-1.6-3.4-4.1c0-1.4,1.3-9.1,4.2-9.1
		c1.4,0,3.6,1.3,3.6,2.9c0,1.2-1.8,4.8-3.3,4.8c-0.6,0-1.1-0.3-1.5-0.7c-0.1,0.3-0.1,0.5-0.1,0.8c0,1.2,0.4,3,1.5,3.1
		c1.4,0,3.4-3.2,4-4.3C43.7,13.1,44.5,13.6,44.5,14.2z M38.5,12.2c0.1,0.3,0.3,0.5,0.6,0.5c0.5,0,1.6-2,1.8-3.8
		c-0.2-0.4-0.5-0.8-0.8-0.8C39.9,8.1,38.9,9.9,38.5,12.2z"/>
	<path class="st1" d="M53.9,14.3c-1,1.8-2.2,3.5-3.7,4.9c-0.1,0.6-0.4,1.5-0.6,2.3c-0.5,2.6-2.3,4.7-3.4,4.7c-1.4,0-2.5-1.1-2.5-2.5
		c0-0.1,0-0.1,0-0.2c0-2.3,2.2-3.7,4-4.7l0.5-2.2c-1.1,1.3-2.5,2.6-3.1,2.6c-1.1,0-1.6-1.3-1.6-2.6c0-2.7,1.7-8,2.2-9.4
		c0.1-0.1,0.2-0.2,0.3-0.2c0.6,0,2,1,2,1.7c0,0.1,0,0.1,0,0.2c-0.2,0.3-1.8,4.8-1.8,6.6c0,0.2,0,0.6,0.2,0.6c0.5,0,2.4-2.3,2.7-2.8
		c0.4-1.9,0.9-3.7,1.5-5.5c0.1-0.1,0.2-0.2,0.4-0.2c0.4,0,1.9,0.7,1.9,1.6c0,0.1,0,0.3-0.1,0.4c-0.9,2.3-1.6,4.8-2,7.2
		c0.9-1.1,1.8-2.3,2.4-3.6C53.2,13.1,54.1,13.9,53.9,14.3z M47.3,20.8c-1,0.5-2.3,1.4-2.3,2.3c0,0.3,0.3,0.6,0.6,0.6c0,0,0,0,0.1,0
		C46.7,23.7,47.2,21.5,47.3,20.8z"/>
	<path class="st1" d="M55.9,10.3c0,0.7,0.9,1.2,1.8,1.6c4.4,1.9,5.6,2.2,5.6,3.5c0,0.8-0.2,1.6-0.5,2.3c-0.6,1.9-4.9,3.6-7.1,3.6
		c-1.9,0-2.6-0.5-2.6-1.4s0.7-2.3,1.1-2.3c0.2,0,0.4,0.1,0.4,0.2s0,0.2,0,0.3c0,0.2,0.3,0.5,1.6,0.5c1.6,0,5.3-1.4,5.3-2.5
		c0-0.4-0.9-0.7-3.9-2c-2.3-1-3.8-2.2-3.8-4.7c0-3.2,6-8,9.7-8c0.9,0.3,1.6,0.9,1.9,1.8c0,2-2.6,6-2.6,7.3c0,0.1,0,0.2,0.1,0.3
		c0,0.1-0.2,0.2-0.3,0.2c-1.1-0.2-1.9-1.1-2-2.2c0-1.1,2.5-4.1,2.6-5.4C61.6,3.4,55.9,7.8,55.9,10.3z"/>
	<path class="st1" d="M70.6,4.6c0,1.6-3.6,8.3-3.6,11c0,0.2,0,0.4,0.2,0.4c0.6,0,1.8-1.4,2.5-2.9c0,0,0,0,0,0c0.4,0.2,0.8,0.6,0.9,1
		c0,0,0,0.1,0,0.1c-0.5,1.4-3.3,5.6-4.9,5.6c-0.9,0-1.2-1.4-1.2-2.7c0-3.1,3.4-11.3,3.5-13.4c0-0.5-0.3-0.7-0.3-0.9
		c0-0.1,0.1-0.2,0.2-0.2C69.2,2.6,70.6,3.5,70.6,4.6z"/>
	<path class="st1" d="M75.2,14.3c-0.3,0.8-3.8,5.6-4.9,5.6c-0.9,0-1.2-1.3-1.2-2.7c0-2.9,1.6-6.7,2.5-9.6c0.1-0.1,0.2-0.2,0.3-0.2
		c0.7,0,1.9,0.9,1.9,1.7c0,0.4-2.1,5.3-2.1,6.6c0,0.2,0,0.3,0.2,0.3c0.6,0,1.9-1.4,2.5-2.9C74.7,13.2,75.4,13.9,75.2,14.3z
		 M73.9,2.8c0.7,0,1.3,0.6,1.3,1.3c0,0,0,0.1,0,0.1c0,1-0.8,1.9-1.8,2c-0.7,0-1.2-0.5-1.2-1.2c0-0.1,0-0.1,0-0.2
		C72.1,3.8,72.8,2.9,73.9,2.8z"/>
	<path class="st1" d="M89.9,14.3c-0.1,0.7-2.9,5.6-4.4,5.6c-0.9,0-1.4-1.1-1.4-2.4s0.8-4.5,1.6-6.9c-1.2,0.8-3.2,2-3.7,5
		c0,0.8,0.1,1.7,0.3,2.5c-0.6,0.7-1.7,1.6-2.1,1.6c-0.9,0-1.3-1-1.3-2.3c0-2.2,0.8-4.4,1.6-6.6c-1.9,1.2-3.5,3.2-3.5,5.6
		c0,0.6,0.1,1.3,0.3,1.9c-0.6,0.7-1.3,1.2-2.2,1.4c-0.9,0-1.3-1-1.3-2.3c0-1.9,2.3-10,2.7-10c0.6,0,2,0.9,2,1.6
		c-0.2,0.7-0.4,1.3-0.6,2c1.5-1.5,3.4-3.2,3.7-3.2c0.6,0,2,0.9,2,1.6c0,0.1-0.4,0.7-0.6,1.4c1.3-1.3,3.5-3.2,3.9-3.2
		c0.8,0,1.8,0.7,1.8,1.4c0,0.1,0,0.1,0,0.2c0.2-0.4-2.6,7.2-1.8,7.2c0.5,0,1.9-2.8,2-3.1C89.5,13.5,89.9,13.9,89.9,14.3z"/>
</g>
<g>
	
		<linearGradient id="SVGID_1_" gradientUnits="userSpaceOnUse" x1="4.5593" y1="2.7847" x2="4.5593" y2="20.7751" gradientTransform="matrix(1 0 0 -1 0 29.06)">
		<stop  offset="0" style="stop-color:#E58045"/>
		<stop  offset="0.48" style="stop-color:#E4DF45"/>
		<stop  offset="1" style="stop-color:#F5ED7B"/>
	</linearGradient>
	<path class="st2" d="M9,13.6c0.4-1.6,0-3.3-0.9-4.7c1.9,7.8-6.8,4.8-1.4-0.6c-6.8,3.3-9.4,13.3-3,18C1.4,23.6,1.4,18.5,3.5,15
		C3.8,17.9,8.2,17.2,9,13.6L9,13.6z"/>
	
		<linearGradient id="SVGID_00000026155443401576711660000014448570914558979224_" gradientUnits="userSpaceOnUse" x1="9.0107" y1="1.7132" x2="9.0107" y2="22.3166" gradientTransform="matrix(1 0 0 -1 0 29.06)">
		<stop  offset="0" style="stop-color:#E58045"/>
		<stop  offset="0.48" style="stop-color:#E4DF45"/>
		<stop  offset="1" style="stop-color:#F5ED7B"/>
	</linearGradient>
	<path style="fill-rule:evenodd;clip-rule:evenodd;fill:url(#SVGID_00000026155443401576711660000014448570914558979224_);" d="
		M10.3,9.1c2.2,6.5-6.4,8.5-7.2,13.9c-0.1,1.9,0.9,3.6,2.6,4.4c-2.6-2.5-1.5-6.7,3.8-8.7c6.7-2.6,7.1-6.7,2.8-11.9
		c0.9,2.1,1.1,4.4,0.4,6.5C12.9,11.6,11.6,10.2,10.3,9.1z"/>
	
		<linearGradient id="SVGID_00000111191166015215381830000015260616178150681502_" gradientUnits="userSpaceOnUse" x1="7.5996" y1="-2.3097" x2="7.5996" y2="43.7284" gradientTransform="matrix(1 0 0 -1 0 29.06)">
		<stop  offset="0" style="stop-color:#E58045"/>
		<stop  offset="0.48" style="stop-color:#E4DF45"/>
		<stop  offset="1" style="stop-color:#F5ED7B"/>
	</linearGradient>
	<path style="fill-rule:evenodd;clip-rule:evenodd;fill:url(#SVGID_00000111191166015215381830000015260616178150681502_);" d="
		M3.6,23.1c0.8-5.4,9.2-6.7,7-13.2c1.3,1.1,1.9,2.8,1.6,4.5c2.2-2.1,2.2-4.9-0.1-7.7C10.6,4.9,9,2.3,10.1-0.1c-2.3,1.9-3,4.9-2,9
		c0.5,1.5,0.7,3.1,0.4,4.7c-0.8,3.6-4.7,3.4-5,0.5c-2.8,3.4-3.2,9.4,0.2,12.1l0.5,0.3c0.5,0.3,0.9,0.5,1.4,0.7
		C4.2,26.5,3.4,24.8,3.6,23.1L3.6,23.1z"/>
	
		<linearGradient id="SVGID_00000029762833097300378570000005359256102938752410_" gradientUnits="userSpaceOnUse" x1="14.2286" y1="19.008" x2="14.2286" y2="1.1493" gradientTransform="matrix(1 0 0 -1 0 29.06)">
		<stop  offset="0" style="stop-color:#0C434C"/>
		<stop  offset="0.5" style="stop-color:#065054"/>
		<stop  offset="1" style="stop-color:#65C1BD"/>
	</linearGradient>
	<path style="fill-rule:evenodd;clip-rule:evenodd;fill:url(#SVGID_00000029762833097300378570000005359256102938752410_);" d="
		M15.1,10.1c2.4,3.8,1.2,5.9-1.3,9.2c-0.8,1.1-1.9,2.6-0.4,3.6c2.4,1.6-1.1,3.8-3,5.1c1.1-0.2,2.2-0.5,3.2-1.1
		C19.2,23.5,19.4,14.6,15.1,10.1z"/>
	
		<linearGradient id="SVGID_00000174586294052800116310000003461270211241516713_" gradientUnits="userSpaceOnUse" x1="12.2746" y1="19.008" x2="12.2746" y2="1.0036" gradientTransform="matrix(1 0 0 -1 0 29.06)">
		<stop  offset="0" style="stop-color:#0C434C"/>
		<stop  offset="0.5" style="stop-color:#065054"/>
		<stop  offset="1" style="stop-color:#65C1BD"/>
	</linearGradient>
	<path style="fill-rule:evenodd;clip-rule:evenodd;fill:url(#SVGID_00000174586294052800116310000003461270211241516713_);" d="
		M14.1,19.4c3-3.1,3.6-6,1-9.4c2.3,4.5-1.3,8.3-5.4,10.4c-1.9,1-2.1,3.4-0.8,3.9c2.3,0.9,0.8,2.8-1,3.6c0.8,0.2,1.7,0.2,2.5,0
		c2.3-0.4,5.9-3.8,3.6-5.4C12.5,21.5,13.2,20.3,14.1,19.4L14.1,19.4z"/>
	
		<linearGradient id="SVGID_00000145040918338008405990000015187126065374853801_" gradientUnits="userSpaceOnUse" x1="10.5881" y1="29.9677" x2="10.5881" y2="-11.6527" gradientTransform="matrix(1 0 0 -1 0 29.06)">
		<stop  offset="0" style="stop-color:#0C434C"/>
		<stop  offset="0.5" style="stop-color:#065054"/>
		<stop  offset="1" style="stop-color:#65C1BD"/>
	</linearGradient>
	<path style="fill-rule:evenodd;clip-rule:evenodd;fill:url(#SVGID_00000145040918338008405990000015187126065374853801_);" d="
		M9.3,24.1c-1.3-0.5-1.1-2.5,0.9-3.4c4.2-2,7.9-5.8,4.9-10.6c0.6,1.2,0.7,2.6,0.5,3.9c-0.7,2.8-3.5,4.3-5.9,5.3
		c-1.5,0.5-2.8,1.4-3.8,2.6c-1.3,1.6-1.1,4,0.5,5.3c0.5,0.4,1,0.6,1.6,0.8C10.5,28.2,11.7,25,9.3,24.1L9.3,24.1z"/>
</g>
</svg>
